<?xml version="1.0" standalone="no"?>
<!DOCTYPE svg PUBLIC "-//W3C//DTD SVG 20010904//EN"
 "http://www.w3.org/TR/2001/REC-SVG-20010904/DTD/svg10.dtd">
<svg version="1.0" xmlns="http://www.w3.org/2000/svg"
 width="512.000000pt" height="512.000000pt" viewBox="0 0 512.000000 512.000000"
 preserveAspectRatio="xMidYMid meet">
<metadata>
Created by potrace 1.11, written by Peter Selinger 2001-2013
</metadata>
<g transform="translate(0.000000,512.000000) scale(0.100000,-0.100000)"
fill="#000000" stroke="none">
<path d="M733 4508 c-36 -12 -82 -50 -106 -88 -26 -42 -30 -108 -12 -210 9
-52 18 -106 20 -120 2 -14 6 -41 10 -60 14 -85 24 -148 30 -185 3 -22 7 -47
10 -55 2 -8 6 -31 9 -50 15 -111 19 -137 23 -155 7 -37 23 -129 29 -175 3 -25
8 -54 10 -65 2 -11 11 -63 19 -115 9 -52 18 -106 20 -120 5 -25 42 -256 51
-315 11 -71 21 -99 39 -109 11 -6 22 -12 24 -13 11 -6 7 -70 -5 -84 -8 -9 -16
-29 -19 -45 -2 -16 -6 -38 -8 -49 -3 -11 -8 -42 -11 -68 -4 -27 -9 -59 -12
-70 -2 -12 -7 -38 -10 -57 -3 -19 -9 -60 -14 -90 -11 -62 -18 -108 -24 -147
-3 -16 -14 -82 -25 -148 -11 -66 -23 -140 -26 -165 -4 -25 -11 -64 -16 -88 -5
-24 -12 -62 -14 -85 -3 -23 -12 -82 -21 -132 -8 -49 -17 -101 -19 -115 -5 -30
-34 -205 -40 -240 -3 -14 -8 -45 -11 -70 -3 -25 -10 -63 -14 -85 -17 -77 -21
-154 -11 -192 13 -48 56 -97 107 -123 38 -19 77 -19 1844 -19 1773 0 1806 0
1845 19 104 51 130 138 96 320 -16 86 -18 95 -41 240 -26 155 -26 156 -44 265
-9 50 -18 108 -21 130 -4 22 -8 47 -10 55 -2 8 -7 38 -10 65 -3 28 -8 60 -11
73 -8 36 -34 189 -38 225 -3 18 -7 44 -10 57 -3 14 -8 43 -11 65 -3 22 -12 81
-21 130 -8 50 -17 101 -19 115 -22 142 -38 217 -50 230 -18 20 -9 90 11 90 15
0 34 31 39 63 2 12 11 65 19 117 9 52 18 113 21 135 4 22 8 47 10 55 2 8 7 35
10 60 3 25 10 68 15 95 5 28 12 66 14 85 3 19 8 46 10 60 8 42 17 103 22 140
2 19 6 46 9 60 11 51 13 68 20 121 4 30 8 56 10 59 2 3 6 26 10 50 3 25 12 81
20 125 8 44 16 98 20 120 3 22 15 95 26 163 22 130 19 187 -8 232 -26 40 -74
79 -112 90 -51 14 -3605 12 -3648 -2z"/>
</g>
</svg>
